<svg width="362" height="362" viewBox="0 0 362 362" fill="none" xmlns="http://www.w3.org/2000/svg">
<rect width="362" height="362" fill="#F3ECD8"/>
<circle cx="181" cy="181" r="181" fill="#F3ECD8"/>
<path d="M319.697 153.171C320.188 153.464 320.729 153.756 321.319 154.049C321.909 154.342 322.449 154.635 322.941 154.928C321.27 159.322 319.647 163.618 318.074 167.817C316.6 171.918 315.027 176.019 313.355 180.12H237.41V175.433C241.932 175.433 245.226 174.701 247.29 173.236C248.962 171.771 249.797 169.575 249.797 166.645V91.3631C249.797 90.289 249.65 89.3614 249.355 88.5803C248.863 87.3109 248.274 86.2857 247.585 85.5045C245.619 83.747 242.227 82.8682 237.41 82.8682V78.0349H309.964C311.635 82.2335 313.257 86.3833 314.83 90.4843C316.501 94.5853 318.173 98.7351 319.844 102.934C319.352 103.227 318.861 103.568 318.369 103.959C317.878 104.252 317.386 104.496 316.895 104.691C314.83 100.59 312.52 97.2216 309.964 94.5853C307.408 91.9489 305.048 89.8985 302.885 88.4338C297.675 84.9187 291.629 83.1611 284.747 83.1611H269.115C265.97 83.1611 263.413 83.8446 261.447 85.2116C259.973 86.3833 259.235 88.4338 259.235 91.3631V124.317H281.355C286.074 124.317 289.318 123.292 291.088 121.242C293.349 118.703 294.48 113.918 294.48 106.888H298.904V147.459H294.48C294.48 139.94 293.349 135.058 291.088 132.812C289.318 130.762 286.074 129.736 281.355 129.736H259.235V166.792C259.235 169.819 259.973 171.967 261.447 173.236C262.43 174.017 263.561 174.505 264.839 174.701C266.215 174.994 267.739 175.14 269.41 175.14H286.369C294.136 175.14 300.182 173.724 304.507 170.893C307.064 169.233 309.57 166.889 312.028 163.862C314.584 160.836 317.14 157.272 319.697 153.171Z" fill="#511A06"/>
<path d="M228.098 117.787C232.224 133.185 231.309 146.654 225.353 158.192C219.837 169.513 211.234 176.739 199.546 179.871C187.858 183.003 176.842 181.033 166.496 173.962C155.569 166.948 148.043 155.742 143.917 140.343C139.791 124.945 140.706 111.477 146.662 99.9386C152.086 88.6425 160.642 81.4286 172.33 78.2968C184.018 75.165 195.081 77.122 205.519 84.1679C216.446 91.1822 223.972 102.389 228.098 117.787ZM218.358 120.397C216.643 113.996 214.276 108.317 211.258 103.36C208.239 98.4019 204.51 94.1318 200.07 90.5491C191.476 83.7052 182.726 81.4763 173.821 83.8625C165.101 86.1989 158.697 92.538 154.608 102.88C150.451 113.339 150.088 124.97 153.518 137.771C156.898 150.386 163.016 160.23 171.87 167.303C180.7 174.283 189.428 176.617 198.055 174.305C206.96 171.919 213.352 165.533 217.231 155.149C221.462 144.967 221.838 133.383 218.358 120.397Z" fill="#511A06"/>
<path d="M132.566 136.915C127.372 136.915 123.957 137.587 122.322 138.931C120.975 140.083 120.301 142.34 120.301 145.7V177.672H113.808L111.644 171.623C105.103 177.288 96.3488 180.12 85.3826 180.12C72.1077 180.12 61.4781 175.415 53.4939 166.006C45.5097 156.405 41.5176 143.732 41.5176 127.986C41.5176 112.72 45.7502 100.143 54.2153 90.2537C62.7767 80.2686 73.3101 75.276 85.8155 75.276C88.1242 75.276 90.3366 75.42 92.4529 75.7081C94.6654 75.9961 96.8298 76.3801 98.9461 76.8602C100.004 77.2442 100.966 77.5803 101.832 77.8683C102.794 78.1563 103.756 78.4924 104.718 78.8764C106.353 78.3964 107.988 77.9163 109.624 77.4362C111.259 76.8602 112.894 76.2841 114.53 75.7081L124.486 101.631C123.909 102.015 123.283 102.351 122.61 102.639C122.033 102.831 121.456 103.071 120.879 103.359C119.051 100.287 117.127 97.5025 115.107 95.0063C113.087 92.51 110.826 90.2537 108.325 88.2375C102.169 83.2449 94.954 80.7486 86.6812 80.7486C81.7753 80.7486 77.3022 82.0448 73.262 84.6371C69.2218 87.1334 65.5664 90.3017 62.2957 94.1422C55.0811 102.975 51.4738 113.872 51.4738 126.834C51.4738 140.852 54.7925 152.229 61.43 160.966C64.5082 164.806 68.1156 168.023 72.2519 170.615C76.3883 173.111 80.8133 174.359 85.5269 174.359C88.8937 174.359 92.0201 173.975 94.9059 173.207C97.7918 172.439 100.485 171.335 102.986 169.895C104.814 168.647 106.305 167.399 107.459 166.15C108.71 164.902 109.624 163.51 110.201 161.974C110.778 160.246 111.067 158.518 111.067 156.789V145.844C111.067 142.484 110.297 140.179 108.758 138.931C106.834 137.587 103.034 136.915 97.3589 136.915V131.874H132.566V136.915Z" fill="#511A06"/>
<path d="M322.456 269.051C322.948 269.343 323.489 269.636 324.078 269.929C324.668 270.222 325.209 270.515 325.701 270.808C324.029 275.202 322.407 279.498 320.834 283.697C319.36 287.798 317.787 291.899 316.115 296H240.17V291.313C244.692 291.313 247.986 290.581 250.05 289.116C251.721 287.651 252.557 285.454 252.557 282.525V207.243C252.557 206.169 252.41 205.241 252.115 204.46C251.623 203.191 251.033 202.166 250.345 201.384C248.379 199.627 244.987 198.748 240.17 198.748V193.915H312.723C314.395 198.113 316.017 202.263 317.59 206.364C319.261 210.465 320.933 214.615 322.604 218.814C322.112 219.106 321.621 219.448 321.129 219.839C320.638 220.132 320.146 220.376 319.654 220.571C317.59 216.47 315.28 213.102 312.723 210.465C310.167 207.829 307.808 205.778 305.645 204.314C300.435 200.799 294.388 199.041 287.507 199.041H271.875C268.729 199.041 266.173 199.725 264.207 201.092C262.732 202.263 261.995 204.314 261.995 207.243V240.197H284.115C288.834 240.197 292.078 239.172 293.848 237.121C296.109 234.583 297.239 229.798 297.239 222.768H301.663V263.338H297.239C297.239 255.82 296.109 250.938 293.848 248.692C292.078 246.642 288.834 245.616 284.115 245.616H261.995V282.672C261.995 285.699 262.732 287.847 264.207 289.116C265.19 289.897 266.321 290.385 267.599 290.581C268.975 290.874 270.499 291.02 272.17 291.02H289.129C296.895 291.02 302.942 289.604 307.267 286.773C309.823 285.113 312.33 282.769 314.788 279.742C317.344 276.715 319.9 273.151 322.456 269.051Z" fill="#511A06"/>
<path d="M234.651 296H201.568V291.18C205.673 291.18 208.633 290.547 210.447 289.282C212.166 288.016 213.025 285.874 213.025 282.856V244.446H162.04V282.856C162.04 286.069 162.708 288.211 164.045 289.282C165.859 290.547 169.105 291.18 173.783 291.18V296H140.843V291.18C145.904 291.18 149.293 290.45 151.012 288.99C152.253 287.724 152.874 285.679 152.874 282.856V206.475C152.874 203.651 152.205 201.704 150.869 200.633C149.054 199.27 145.808 198.588 141.13 198.588V193.915H173.354V198.588C168.771 198.588 165.715 199.27 164.188 200.633C162.756 201.801 162.04 203.748 162.04 206.475V239.042H213.025V206.475C213.025 203.748 212.166 201.801 210.447 200.633C208.633 199.27 205.626 198.588 201.424 198.588V193.915H233.935V198.588C229.352 198.588 226.154 199.27 224.339 200.633C223.003 201.704 222.334 203.651 222.334 206.475V282.856C222.334 286.069 223.003 288.211 224.339 289.282C226.154 290.547 229.591 291.18 234.651 291.18V296Z" fill="#511A06"/>
<path d="M124.176 193.915C125.598 198.113 127.02 202.263 128.443 206.364C129.865 210.465 131.239 214.713 132.567 219.107C131.808 219.302 131.097 219.546 130.434 219.839C129.865 220.132 129.201 220.376 128.443 220.571C126.641 216.47 124.887 213.15 123.18 210.612C121.569 207.975 119.957 205.876 118.345 204.314C116.259 202.361 113.794 201.043 110.95 200.359C108.105 199.676 105.308 199.334 102.559 199.334C97.0595 199.334 93.4566 199.773 91.75 200.652C89.8537 201.531 88.9056 203.288 88.9056 205.925V283.697C88.9056 286.528 89.9485 288.53 92.0344 289.702C93.9307 290.776 98.055 291.313 104.407 291.313V296H64.3016V291.313C69.9904 291.313 73.8303 290.825 75.8214 289.848C78.4762 288.579 79.8035 286.528 79.8035 283.697V204.753C79.8035 202.703 79.045 201.287 77.528 200.506C76.1058 199.725 73.214 199.334 68.8527 199.334C65.5342 199.334 62.1209 199.627 58.6129 200.213C55.1996 200.799 52.2604 202.166 49.7953 204.314C48.7523 205.192 47.7568 206.267 46.8087 207.536C45.8605 208.708 44.7702 210.27 43.5376 212.223C42.7791 213.492 42.068 214.761 41.4043 216.031C40.7406 217.202 40.0295 218.472 39.271 219.839C38.7022 219.546 38.1333 219.302 37.5644 219.107C37.0904 218.814 36.5689 218.521 36 218.228C37.4222 214.127 38.8444 210.075 40.2666 206.071C41.6888 202.068 43.111 198.016 44.5332 193.915H124.176Z" fill="#511A06"/>
</svg>
