<?xml version="1.0" encoding="UTF-8"?>
<svg id="Layer_1" xmlns="http://www.w3.org/2000/svg" viewBox="0 0 1420 1420">
  <defs>
    <style>
      .cls-1 {
        fill: #f3ecd9;
      }
    </style>
  </defs>
  <g id="Layer_1-2">
    <path class="cls-1" d="M1317.34,873.27c-160.08,153.11,84.34,353.87,9.62,424.86-48.72,30.59-144.32,1.3-194.06-5.19-52.2-8.71-106.04-4.82-157.83,3.52-85.57,15.57-176.66,42.82-264.27,46.34-239.91,18.54-450.56-77.48-580.54-260.26C50.42,971.14,10.71,823.59,9.27,684.19-.96,425.6,191.46,193.71,454.1,104.36c190.58-71.74,352.71,4.63,535.51,49.49,43.6,10.01,88.23,17.05,132.85,17.8,48.92,3.34,108.9-14.09,159.47-9.27,84.75,13.72-94.98,118.08-114.43,137.73-150.25,114.19-293.96,235.79-415.96,375-56.91,68.4-122.41,150.15-97.23,240.61,12.49,53.2,77.17,61.54,114.84,98.62,24.77,23.54,29.07,63.95-6.35,82.3-132.44,57.46-213.3-109-192.22-205.94,25.18-165.16,176.25-288.25,277.78-418.75,45.04-53.76,87.41-116.78,72.47-185-33.37-122.71-196.11-169.24-322-155.34-444.21,55.8-449.12,587.25-347.59,896.81,60.39,193.89,300.1,295.48,512.99,253.03,134.29-22.8,266.73-101.21,295.8-228.56,18.83-67.66-4.71-143.47-59.36-190.56-19.45-18.35-46.88-30.96-66.53-49.86-45.04-51.16,27.23-59.69,70.01-59.13,101.12-.93,202.04,0,303.17-.37,40.74-1.11,140.02.37,90.07,57.28-22.31,24.1-55.68,39.67-79.02,62.28l-1.02.93v-.19Z"/>
  </g>
</svg>