<?xml version="1.0" encoding="UTF-8"?>
<svg id="Layer_1" xmlns="http://www.w3.org/2000/svg" viewBox="0 0 1420 1420">
  <defs>
    <style>
      .cls-1 {
        fill: #f3ecd9;
      }
    </style>
  </defs>
  <path class="cls-1" d="M845.29,70.18c71.49,35.75,135.34,131.99,109.54,213.69-13.72,43.43-49.86,76.81-95.78,54.06-26.89-13.32-41.55-37.89-47.5-66.48-6.07-29.14,12.51-67.41,2-93.03-30-72.98-184.51-33.65-235.38-9.92-89.36,41.7-160.82,116.54-209.98,200.97-118.45,203.43-179.04,513.9,10.55,695.39,69.88,66.9,169.91,101.01,266.1,90.76,51.11-5.45,101.68-23.35,141.25-56.17,119.85-99.39,61.21-232.91,48.51-361.67-7.04-59.42,11.81-109.99,50.49-152.27,28.53-34.28,69.97-59.06,114.64-59.15,85.1-2.45,144.86,66.11,125.57,150.6-6.19,34.78-27.25,64.61-37.89,97.63-7.96,24.66-3.89,55.27,18.68,70.76,25.92,18.32,61.09,17.24,94.02,19.56,44.75,2.66,95.13.06,137.87,15.9,49.79,18.45,86.91,69.75,66.67,123.13-32.79,86.5-137.86,75.37-208.4,101.23-17.23,6.32-41.01,16.76-42.29,37.34,1.79,35.81,65.11,44.23,69.12,117.89,1.41,26.13-11.57,53.37-32.39,68.52-64.2,46.47-137.42-32.6-145.11-94.86-6.19-50.19,19.6-99.87,52.02-136.39,33.35-37.57,84.47-49.95,116.46-86.58,20.95-23.98,23.19-64.04-7.38-80.6-24.59-14.47-54.96-15.43-82.38-21.39-67.76-11.71-104.03-63.74-103.04-130.81-.39-27.02-7.85-67.68-41.8-66.76-47.06,8.02-8.66,105.93-1.37,130.36,23.15,77.65,40.2,167.83,16.2,248.54-31.91,107.31-91.28,183.78-204.53,232.74-324.18,140.15-694.03,26.06-766.01-355.8C-50.16,575.37,176.04,198.14,514.4,72.56c97.17-36.07,232.95-51.33,330.9-2.37Z"/>
</svg>