<?xml version="1.0" encoding="UTF-8"?>
<svg id="Layer_1" xmlns="http://www.w3.org/2000/svg" viewBox="0 0 1420 1420">
  <defs>
    <style>
      .cls-1 {
        fill: #f3ecd9;
      }
    </style>
  </defs>
  <path class="cls-1" d="M451.24,525.12c31.94-19.69,66.46-35.37,101.03-49.17,16.8-7.12,34.47-12.49,52.65-16.11,16.54-4.09,40.24-4.9,48.84-21.24,7.01-14.62-12.05-31.31-24.12-40.71-81.83-71.96-76.99-211.97.92-285.2,38.08-32.13,92.68-50.17,142.93-45.08,57.3,6.7,115.36,40.57,146.21,88.36,78.77,135.1-18.93,301.14-176.76,286.21-33.6-2.37-38.51,3.81-.92,7.16,251.78,3.64,453.53,228.9,456.12,474.15,2.31,93.12-26.89,190.69-82.5,268.22-287.99,419.72-950.45,187.08-890-318.05,3.87-28.42,9.84-57.17,17.61-84.83,8.14-27.45,20.35-54.81,33.26-80.26,24.17-46.23,58.23-88.12,95.09-124.9,15.76-14.95,35.45-27.91,53.02-40.27,8.99-6.29,17.91-12.83,26.47-18.18l.16-.1ZM717.13,405.64c40.13,19,90.7,6.32,118.98-27.89,56.35-69.11,51.89-215.25-28.52-258.82-14.18-7.74-32.51-12.57-49.32-13.31-59.15-3.48-90.79,43.97-99.29,96.84-9.98,60.05-3.02,170.89,57.96,203.08l.19.1ZM342.17,1067.77c61.01,166.66,239.86,292.94,419.81,264.97,54.45-8.66,107.58-30.38,153.88-60.42,241.92-161.2,258.97-500.91,21.55-679.71-198.17-149.13-455.62-65.75-572.38,146.42-51.67,102.38-63.82,222.51-22.93,328.54l.08.22Z"/>
  <circle class="cls-1" cx="589.54" cy="63.26" r="52.36"/>
</svg>