<?xml version="1.0" encoding="UTF-8"?>
<svg id="Layer_1" xmlns="http://www.w3.org/2000/svg" viewBox="0 0 1420 1420">
  <defs>
    <style>
      .cls-1 {
        fill: #f3ecd9;
      }
    </style>
  </defs>
  <path class="cls-1" d="M1242.5,399.45V116.22c0-59.4-47.55-107.55-106.22-107.55H283.71c-58.66,0-106.22,48.15-106.22,107.55v1187.55c0,59.4,47.55,107.55,106.22,107.55h852.58c58.66,0,106.22-48.15,106.22-107.55v-658.23c0-58.11-46.52-105.22-103.91-105.22h-438.91c-8.7,0-15.75,7.14-15.75,15.95v35.98c0,8.81,7.05,15.95,15.75,15.95h224.91c123.99,0,229,98.43,232.19,223.93,3.3,129.8-99.63,236.08-227.07,236.08h-245.36c-125.68,0-227.56-103.16-227.56-230.42V310.73c0-127.26,101.88-230.42,227.56-230.42h-.82c125.68,0,227.56,103.16,227.56,230.42v88.71c0,38.24,30.61,69.24,68.38,69.24h194.66c37.76,0,68.38-31,68.38-69.24Z"/>
</svg>