<?xml version="1.0" encoding="UTF-8"?>
<svg id="Layer_1" xmlns="http://www.w3.org/2000/svg" viewBox="0 0 1420 1420">
  <defs>
    <style>
      .cls-1 {
        fill: #f3ecd9;
      }
    </style>
  </defs>
  <path class="cls-1" d="M1384.69,58.42c-14.59-16.21-44.58-24.32-89.96-24.32-61.59,0-130.48,15.4-206.66,46.2-76.17,30.79-153.17,72.94-230.97,126.42-77.8,51.86-149.93,110.22-216.38,175.05-64.83,64.84-117.52,132.1-158.04,201.8-24.61,44.09-41.44,86.89-50.47,128.39-20.75,1.93-41.2,2.89-61.36,2.89-64.84,0-115.08-6.48-150.74-19.45-34.04-14.59-54.3-24.31-60.78-29.17-6.48-4.87-12.97-5.68-19.45-2.44-4.87,3.24-1.62,8.92,9.72,17.01,8.11,6.49,30.8,17.02,68.08,31.61,37.29,14.59,88.34,21.88,153.18,21.88,18.94,0,38.12-.7,57.55-2.1-2.71,17.13-4.06,34.04-4.06,50.71,0,45.39,9.72,74.57,29.18,87.54,21.06,11.34,56.72,17.01,106.97,17.01s101.3-11.34,158.04-34.04c56.72-24.31,111.83-52.68,165.32-85.09,26.98-15.87,52.21-31.54,75.69-47.04-13.75,14.53-27.63,30.21-41.65,47.04-47,58.35-96.43,121.56-148.31,189.64-51.86,68.08-106.16,132.91-162.9,194.5-55.11,59.97-112.65,110.22-172.63,150.74-59.97,38.9-121.56,58.36-184.77,58.36s-106.98-6.49-136.16-19.46c-29.17-12.97-47-28.36-53.49-46.19-8.1-17.83-12.15-33.23-12.15-46.19,0,0,4.06,2.44,12.15,7.3,8.11,3.24,19.45,4.86,34.04,4.86,12.97,0,25.13-4.05,36.47-12.15,9.73-9.73,14.59-21.88,14.59-36.47,0-11.34-4.86-21.07-14.59-29.17-8.11-8.11-19.45-12.16-34.04-12.16s-32.41,7.29-53.49,21.88c-21.07,12.97-31.61,32.41-31.61,58.36,0,40.52,23.51,72.94,70.51,97.24,47,24.32,101.3,36.47,162.9,36.47,92.4,0,176.67-17.83,252.86-53.49,76.18-37.29,145.88-85.91,209.09-145.88,63.22-59.97,121.57-124.8,175.06-194.5,53.49-69.7,102.93-137.78,148.31-204.23,45.38-66.45,88.34-124.81,128.86-175.06,40.52-50.24,79.42-85.9,116.7-106.97,59.35-59.35-6.95-69.78-33.3-43.43-8.34,8.34-29.92,44.24-63.95,70.17-34.04,25.93-76.18,57.55-126.42,94.82-48.63,35.66-101.3,72.13-158.04,109.41-55.11,35.66-111.03,65.65-167.76,89.96-55.11,24.31-106.98,36.47-155.61,36.47-22.68,0-40.52-4.87-53.49-14.59-11.34-11.34-17.01-27.56-17.01-48.63,0-19.26,9.33-46.09,28.01-80.5,36.07-6.62,72.94-15.44,110.57-26.47,94.02-29.18,186.4-66.46,277.18-111.84,92.38-45.38,175.05-94.82,247.99-148.31,74.56-55.11,133.73-109.41,177.49-162.9,45.39-55.11,68.08-103.74,68.08-145.88,0-27.56-8.11-49.44-24.31-65.64ZM1321.47,221.31c-42.14,48.63-99.68,101.3-172.63,158.04-72.94,56.72-153.98,111.02-243.13,162.9-87.53,50.24-178.3,91.57-272.31,124-30.73,10.78-60.93,19.78-90.58,26.96,25.45-42,58.88-89.09,100.31-141.24,43.76-56.72,93.2-113.46,148.31-170.19,56.73-58.35,115.08-111.83,175.05-160.46,61.59-48.63,121.56-87.53,179.92-116.7,58.35-30.79,112.65-46.19,162.9-46.19,17.83,0,34.85,4.05,51.05,12.15,17.84,8.11,26.74,21.07,26.74,38.9,0,25.94-21.87,63.22-65.64,111.84Z"/>
</svg>